<?xml version="1.0" encoding="utf-8"?>
<!-- Generator: Adobe Illustrator 25.2.1, SVG Export Plug-In . SVG Version: 6.00 Build 0)  -->
<svg version="1.1" id="Capa_1" xmlns="http://www.w3.org/2000/svg" xmlns:xlink="http://www.w3.org/1999/xlink" x="0px" y="0px"
	 viewBox="0 0 100 100" style="enable-background:new 0 0 100 100;" xml:space="preserve">
<style type="text/css">
	.st0{fill:#FFD800;}
</style>
<g>
	<path class="st0" d="M28.72,54.73c-6.63,4.17-13.5,2.2-17.27-1.7c-4-4.13-4.92-10.49-2.21-15.58c2.74-5.14,8.51-7.92,14.26-6.87
		c5.29,0.97,10.81,5.63,10.95,13.4c0.3,0,0.6,0,0.9,0c4.76,0,9.51-0.01,14.27,0.01c0.69,0,1.05-0.11,1.14-0.91
		c0.13-1.16,0.37-2.32,0.69-3.43c0.14-0.48,0.52-1.05,0.94-1.25c5.48-2.53,10.98-5.01,16.61-7.56c0.41,0.9,0.81,1.78,1.25,2.73
		c-2.46,1.12-4.83,2.2-7.21,3.28c-2.66,1.21-5.32,2.44-7.99,3.62c-0.57,0.25-0.88,0.55-0.94,1.19c-0.07,0.76-0.26,1.51-0.43,2.41
		c0.36,0,0.68,0,1,0c4.76,0,9.51,0.01,14.27-0.01c0.77,0,1.4,0.12,1.76,0.89c0.35,0.75,0,1.3-0.45,1.85
		c-7.34,9.07-14.69,18.13-22.01,27.22c-0.28,0.35-0.51,0.86-0.51,1.3c-0.04,4.32-0.01,8.65-0.04,12.97c0,0.59,0.21,0.84,0.73,1.07
		c2.68,1.16,5.36,2.35,8.01,3.59c0.46,0.22,0.94,0.63,1.16,1.08c0.42,0.88-0.32,1.87-1.36,1.91c-0.83,0.03-1.67,0.01-2.5,0.01
		c-5.68,0-11.37,0-17.05,0c-1.15,0-1.74-0.38-1.91-1.2c-0.16-0.75,0.27-1.37,1.24-1.81c2.67-1.2,5.33-2.41,8.02-3.57
		c0.53-0.23,0.73-0.48,0.73-1.07c-0.03-4.32-0.01-8.65-0.03-12.97c0-0.37-0.11-0.81-0.33-1.09c-5.14-6.4-10.3-12.79-15.46-19.17
		C28.88,54.97,28.81,54.86,28.72,54.73z M31.33,44.08c0.21-4.21-2.7-8.76-7.55-10.02c-4.87-1.27-9.9,1.14-11.95,5.71
		c-2.04,4.55-0.41,9.95,3.75,12.72c3.77,2.5,8.87,1.84,11.06-0.19c-0.17-0.22-0.33-0.44-0.51-0.65c-1.36-1.68-2.72-3.35-4.08-5.03
		c-0.41-0.51-0.61-1.07-0.27-1.71c0.32-0.62,0.83-0.87,1.52-0.83c0.31,0.02,0.62,0,0.93,0C26.6,44.08,28.97,44.08,31.33,44.08z
		 M50.01,47.09c-7.88,0-15.67,0-23.6,0c0.23,0.3,0.38,0.52,0.55,0.73c1.6,2,3.22,3.98,4.79,6.01c0.39,0.5,0.8,0.65,1.4,0.64
		c4.79-0.02,9.57-0.01,14.36-0.01c0.37,0,0.73,0,1.14,0C49.1,51.98,49.55,49.56,50.01,47.09z M34.71,57.46
		c3.89,4.8,7.68,9.47,11.53,14.22c3.9-4.78,7.71-9.44,11.61-14.22c-2.31,0-4.42,0-6.61,0c-0.5,2.55-1,5.1-1.51,7.67
		c-1.06-0.2-1.99-0.38-2.97-0.57c0.44-2.4,0.87-4.73,1.3-7.1C43.66,57.46,39.29,57.46,34.71,57.46z M53.08,47.06
		c-0.45,2.47-0.9,4.89-1.36,7.39c2.82,0,5.46,0.01,8.11-0.02c0.27,0,0.59-0.27,0.78-0.51c1.73-2.09,3.43-4.2,5.13-6.31
		c0.12-0.15,0.19-0.34,0.32-0.56C61.71,47.06,57.46,47.06,53.08,47.06z M48.97,92.97c-2.66-1.44-3.54-1.42-5.19,0
		C45.46,92.97,47.11,92.97,48.97,92.97z"/>
	<path class="st0" d="M52.17,20.56c0-2.91,0.06-5.77-0.03-8.64c-0.04-1.31,0.42-2,1.61-2.54c3.57-1.6,7.11-3.25,10.61-5
		c1.32-0.66,2.7-0.17,2.66,1.68c-0.1,5.09-0.03,10.18-0.04,15.27c0,2.37-1.61,4.15-3.96,4.46c-2.16,0.28-4.19-1.12-4.79-3.33
		c-0.83-3.04,1.89-6.04,4.97-5.5c0.24,0.04,0.49,0.07,0.78,0.12c0-3.03,0-6.03,0-9.14c-2.2,1.03-4.29,2.18-6.49,2.99
		c-1.9,0.7-2.55,1.72-2.41,3.77c0.22,3.35,0.06,6.72,0.06,10.09c0,2.56-1.87,4.5-4.36,4.56c-2.35,0.05-4.41-1.82-4.53-4.12
		c-0.13-2.56,1.66-4.63,4.21-4.8C51,20.39,51.55,20.5,52.17,20.56z M62.51,22.77c0.77,0.02,1.5-0.68,1.51-1.45
		c0.01-0.76-0.72-1.49-1.49-1.48c-0.73,0.01-1.43,0.68-1.46,1.41C61.04,22.03,61.73,22.76,62.51,22.77z M50.69,26.28
		c0.77-0.01,1.48-0.74,1.47-1.5c-0.02-0.76-0.77-1.48-1.52-1.44c-0.73,0.03-1.41,0.73-1.42,1.46C49.2,25.55,49.93,26.29,50.69,26.28
		z"/>
	<path class="st0" d="M91.69,4.03c0.21,1.03,0.41,1.97,0.62,3c-2.55,0.57-5.02,1.12-7.53,1.67c0,3.41,0,6.74,0,10.07
		c0,2.42-1.75,4.4-3.98,4.54c-2.48,0.15-4.5-1.38-4.88-3.7c-0.39-2.36,1.12-4.59,3.53-5.08c0.73-0.15,1.52-0.02,2.37-0.02
		c0-2.12,0-4.31,0-6.49c0-1.5,0.25-1.81,1.71-2.14C86.22,5.28,88.91,4.67,91.69,4.03z M81.81,18.89c0.01-0.76-0.72-1.49-1.48-1.49
		c-0.72,0.01-1.43,0.68-1.46,1.41c-0.04,0.75,0.67,1.51,1.43,1.53C81.06,20.38,81.8,19.66,81.81,18.89z"/>
	<path class="st0" d="M48.97,92.97c-1.86,0-3.51,0-5.19,0C45.43,91.55,46.31,91.53,48.97,92.97z"/>
	<path class="st0" d="M26.91,41.07c-0.95,0-1.86,0-2.84,0c0-0.93,0-1.86,0-2.86c0.92,0,1.86,0,2.84,0
		C26.91,39.14,26.91,40.05,26.91,41.07z"/>
	<path class="st0" d="M19.49,42.55c-0.99,0-1.9,0-2.85,0c0-0.95,0-1.87,0-2.85c0.92,0,1.86,0,2.85,0
		C19.49,40.62,19.49,41.56,19.49,42.55z"/>
	<path class="st0" d="M16.61,49.95c0-0.97,0-1.86,0-2.83c0.94,0,1.87,0,2.88,0c0,0.9,0,1.83,0,2.83
		C18.56,49.95,17.63,49.95,16.61,49.95z"/>
</g>
<g>
	<path class="st0" d="M190.95-199.43c1.28,0.54,1.79,1.71,2.29,2.86c0.24,0.55,0.52,0.9,1.2,0.91c0.61,0,1.22,0.16,1.82,0.3
		c1.96,0.44,2.89,2.8,1.43,4.13c-1.54,1.4-1.97,2.76-1.53,4.78c0.38,1.77-1.66,3.19-3.38,2.54c-0.69-0.26-1.3-0.71-1.98-0.97
		c-0.34-0.13-0.81-0.12-1.15,0.01c-0.6,0.22-1.14,0.61-1.73,0.86c-1.97,0.85-4.06-0.64-3.6-2.72c0.4-1.82,0.14-3.13-1.4-4.27
		c-0.8-0.59-1.02-1.58-0.68-2.6c0.33-0.99,1-1.73,2.04-1.75c1.92-0.04,3.08-0.85,3.71-2.69c0.2-0.57,0.99-0.93,1.51-1.39
		C189.96-199.43,190.45-199.43,190.95-199.43z M185.24-192.65c2.21,1.48,2.67,3.43,1.9,5.89c2.07-1.67,4.07-1.57,6.16-0.06
		c-0.87-2.48-0.22-4.36,1.9-5.87c-2.69,0.16-4.2-1.17-5.03-3.58C189.43-193.73,187.84-192.6,185.24-192.65z"/>
	<path class="st0" d="M213.76-164c-1.1,0.11-2.04,0.2-2.99,0.28c-1.92,0.16-3.5,0.98-4.59,2.57c-1.36,2-3.15,3.37-5.49,3.94
		c-0.83,0.2-1.71,0.22-2.56,0.32c-0.39,0.05-0.77,0.11-1.25,0.18c0.51,2.82,0.88,5.56,1.53,8.24c1.04,4.29,5.26,7.35,9.68,7.24
		c4.68-0.12,8.58-3.34,9.52-7.81c0.45-2.15,0.15-4.21-0.64-6.24c-0.58-1.49-0.39-2.21,0.59-2.58c0.89-0.33,1.49,0.18,2.05,1.57
		c2.41,5.96,0.41,11.8-3.77,15.09c-0.98,0.77-2.11,1.36-3.24,2.07c1.61,6,3.24,12.08,4.89,18.26c1.48-0.4,2.89-0.8,4.31-1.16
		c3.2-0.82,5.92,1.35,5.77,4.57c-0.08,1.72-1.32,3.37-3.09,3.87c-4.05,1.13-8.12,2.24-12.2,3.27c-2.27,0.57-4.64-0.96-5.2-3.21
		c-0.58-2.33,0.75-4.68,3.09-5.36c1.47-0.43,2.96-0.8,4.59-1.23c-1.64-6.14-3.27-12.24-4.85-18.14c-1.79-0.18-3.52-0.13-5.12-0.56
		c-5.57-1.53-8.62-5.35-9.59-10.98c-1.31-7.67-2.66-15.33-4.03-22.99c-0.66-3.7-0.14-4.65,3.52-5.64c4.06-1.11,8.13-2.18,12.2-3.26
		c1.96-0.52,3.5,0.27,4.19,2.17c2.01,5.48,4.01,10.97,6.01,16.46c0.41,1.13,0.14,1.89-0.77,2.19c-0.84,0.28-1.46-0.14-1.89-1.27
		C214.21-162.79,213.98-163.42,213.76-164z M196.39-159.54c0.8-0.08,1.5-0.15,2.2-0.23c0.49-0.05,0.99-0.05,1.46-0.17
		c1.58-0.41,2.78-1.35,3.72-2.7c1.66-2.39,3.97-3.71,6.9-3.87c0.66-0.04,1.31-0.15,1.95-0.22c0-0.18,0.02-0.25,0-0.3
		c-1.39-3.84-2.79-7.68-4.18-11.52c-0.2-0.54-0.54-0.51-1.03-0.38c-3.73,1.02-7.48,2-11.21,3.01c-0.8,0.21-1.9,0.25-2.27,0.79
		c-0.35,0.51,0.01,1.56,0.15,2.36C194.84-168.4,195.61-164.01,196.39-159.54z M224.79-117.81c-0.01-1.08-0.97-1.79-2.17-1.48
		c-3.89,1.01-7.77,2.06-11.64,3.13c-0.95,0.26-1.4,1.15-1.13,2.01c0.25,0.81,1.09,1.26,1.99,1.05c0.81-0.19,1.6-0.42,2.4-0.63
		c2.99-0.8,5.99-1.6,8.98-2.41C224.26-116.42,224.8-117.01,224.79-117.81z"/>
	<path class="st0" d="M162.91-115.33c1.65-6.16,3.27-12.21,4.91-18.32c-0.23-0.13-0.45-0.27-0.69-0.39
		c-5.95-2.81-8.83-9.46-6.69-15.65c1.61-4.65,3.35-9.24,5.05-13.86c0.38-1.03,1.08-1.45,1.87-1.17c0.86,0.31,1.16,1.08,0.79,2.12
		c-0.47,1.32-0.96,2.64-1.49,4.08c1.46,0.52,2.84,1.22,4.29,1.46c1.05,0.18,2.32-0.01,3.3-0.46c3.03-1.37,5.94-1.38,8.85,0.24
		c0.27,0.15,0.55,0.27,0.84,0.38c0.14,0.05,0.29,0.06,0.55,0.11c0.31-1.71,0.61-3.4,0.91-5.09c0.4-2.3,0.77-4.61,1.22-6.9
		c0.14-0.71-0.02-1-0.71-1.18c-4.34-1.14-8.68-2.29-13-3.48c-0.64-0.17-0.84,0.09-1.01,0.58c-0.47,1.3-0.94,2.6-1.43,3.9
		c-0.42,1.11-1.08,1.51-1.92,1.18c-0.87-0.33-1.11-1.04-0.71-2.15c0.49-1.36,0.98-2.72,1.49-4.07c0.71-1.89,2.24-2.7,4.19-2.18
		c4.42,1.18,8.84,2.36,13.26,3.56c2.12,0.57,3.04,2,2.66,4.15c-1.47,8.42-2.94,16.84-4.44,25.26c-0.38,2.13-1.29,4.04-2.68,5.71
		c-0.58,0.7-1.41,0.82-2.04,0.32c-0.61-0.48-0.77-1.33-0.22-1.97c1.68-1.97,2.18-4.36,2.58-6.81c0.39-2.37,0.81-4.73,1.24-7.09
		c0.11-0.59,0.1-0.96-0.63-1.14c-0.67-0.16-1.3-0.55-1.93-0.85c-1.74-0.85-3.53-0.97-5.26-0.13c-3.07,1.48-6.05,1.42-9.01-0.23
		c-0.27-0.15-0.56-0.26-0.84-0.37c-0.14-0.05-0.3-0.05-0.59-0.09c-0.95,2.83-2.12,5.59-2.8,8.47c-1.43,6.1,3.84,12.1,10.11,11.67
		c0.88-0.06,1.76-0.26,2.63-0.45c0.97-0.21,1.68,0.1,1.91,0.91c0.23,0.82-0.17,1.53-1.14,1.79c-0.92,0.25-1.86,0.46-2.8,0.56
		c-0.94,0.09-1.9,0.02-2.98,0.02c-1.61,6-3.24,12.1-4.9,18.27c1.53,0.42,2.98,0.81,4.42,1.22c2.48,0.7,3.86,3.02,3.25,5.42
		c-0.6,2.36-3,3.76-5.48,3.12c-3.9-1.01-7.79-2.05-11.66-3.12c-2.25-0.62-3.48-2.42-3.34-4.69c0.12-1.95,1.68-3.65,3.78-3.95
		c0.7-0.1,1.47,0.06,2.18,0.22C160.16-116.09,161.51-115.7,162.91-115.33z M157.54-113.81c-1.06-0.05-1.75,0.49-1.9,1.33
		c-0.14,0.75,0.31,1.52,1.16,1.76c3.96,1.09,7.93,2.16,11.91,3.21c0.76,0.2,1.58-0.33,1.83-1.06c0.26-0.75-0.09-1.59-0.82-1.94
		c-0.25-0.12-0.52-0.19-0.78-0.26c-2.49-0.67-4.98-1.34-7.47-2C160.1-113.15,158.74-113.5,157.54-113.81z"/>
	<path class="st0" d="M208.75-189.79c-0.31,0.49-0.46,0.92-0.76,1.18c-2.19,1.84-4.41,3.65-6.64,5.45c-0.74,0.59-1.52,0.5-2.04-0.15
		c-0.52-0.64-0.44-1.44,0.28-2.03c2.18-1.8,4.36-3.62,6.6-5.35c0.38-0.3,1.11-0.38,1.59-0.24
		C208.16-190.83,208.41-190.23,208.75-189.79z"/>
	<path class="st0" d="M169.13-183.52c0.35,0.1,0.79,0.23,1.24,0.35c2.25,0.64,4.49,1.27,6.74,1.91c0.24,0.07,0.49,0.14,0.68,0.27
		c0.59,0.4,0.9,0.94,0.61,1.66c-0.29,0.72-0.85,1.12-1.6,0.91c-2.72-0.75-5.44-1.54-8.15-2.34c-0.73-0.22-1.11-0.8-0.97-1.57
		C167.8-183.05,168.3-183.43,169.13-183.52z"/>
	<path class="st0" d="M182.29-184.46c-0.32,0.35-0.6,0.86-1.03,1.09c-0.64,0.34-1.27,0.06-1.69-0.52c-1.01-1.4-2-2.8-3-4.21
		c-0.46-0.65-0.94-1.29-1.37-1.97c-0.48-0.75-0.35-1.48,0.28-1.96c0.66-0.5,1.47-0.39,2.01,0.37c1.48,2.04,2.93,4.11,4.38,6.17
		C182.03-185.25,182.1-184.93,182.29-184.46z"/>
</g>
<path class="st0" d="M335.1-153.05c1.01-0.9,1.84-1.61,2.63-2.35c0.73-0.69,1.42-1.42,2.14-2.12c1.02-0.98,2.05-1.76,1.53-3.6
	c-0.48-1.7,0.58-3.17,2-4.22c-3.45-4.11-2.21-8.89,0.62-11.32c2.99-2.57,7.57-2.47,10.44,0.28c3.08,2.96,3.23,7.39,0.33,10.99
	c0.17,0.16,0.35,0.33,0.52,0.49c2.41,2.21,2,5.98-0.86,7.56c-0.53,0.3-0.71,0.59-0.71,1.19c0.02,13.09,0.02,26.18,0,39.27
	c0,0.55,0.14,0.85,0.65,1.13c1.65,0.89,2.47,2.31,2.47,4.2c0,0.94,0.01,1.88,0,2.82c-0.01,1.18-0.55,1.75-1.7,1.76
	c-4.05,0.01-8.1,0.01-12.15,0c-1.11,0-1.67-0.57-1.69-1.67c-0.02-0.94,0.01-1.88-0.01-2.82c-0.03-1.97,0.87-3.38,2.54-4.38
	c0.28-0.17,0.55-0.62,0.55-0.94c0.03-10.79,0.02-21.58,0.02-32.36c0-0.15-0.02-0.3-0.04-0.51c-1.65,1.48-3.2,2.93-4.83,4.29
	c-2.82,2.36-5.91,4.3-9.25,5.83c-0.81,0.37-0.91,0.71-0.63,1.52c3.27,9.39,6.5,18.8,9.74,28.2c0.02,0.06,0.06,0.12,0.08,0.18
	c0.63,1.84,0.05,2.66-1.87,2.66c-16.17,0-32.33,0-48.5,0c-2.11,0-4.22-0.09-6.32,0.03c-1.63,0.1-2.54-0.91-1.92-2.68
	c3.31-9.45,6.54-18.92,9.83-28.37c0.27-0.77,0.25-1.15-0.59-1.54c-4.95-2.3-9.31-5.45-13.15-9.34c-0.27-0.27-0.45-0.62-0.67-0.93
	c-0.09,0.06-0.19,0.12-0.28,0.19c-0.01,0.27-0.04,0.55-0.04,0.82c0,10.59,0,21.19-0.01,31.78c0,0.66,0.18,1,0.79,1.34
	c1.52,0.85,2.31,2.22,2.33,3.98c0.01,1.04,0.02,2.07,0,3.11c-0.02,0.99-0.59,1.59-1.57,1.59c-4.15,0.02-8.29,0.02-12.44,0
	c-0.93,0-1.51-0.6-1.53-1.53c-0.03-1.2-0.07-2.4,0.02-3.59c0.13-1.63,0.97-2.87,2.42-3.63c0.5-0.26,0.68-0.54,0.68-1.11
	c-0.02-13.12-0.01-26.24-0.03-39.36c0-0.32-0.18-0.77-0.42-0.93c-3.37-2.12-3.64-5.45-0.58-8.24c-1.66-1.85-2.37-4.04-2.03-6.5
	c0.28-1.99,1.25-3.65,2.83-4.94c3.03-2.48,7.54-2.24,10.36,0.53c2.7,2.65,3.37,7.31,0.21,10.93c1.43,1.08,2.22,2.49,2.09,4.32
	c-0.01,0.1,0.02,0.21-0.02,0.29c-0.75,1.29,0.17,1.97,0.97,2.73c1.68,1.61,3.34,3.23,5.18,5.02c0.05-0.51,0.09-0.74,0.09-0.98
	c0-6.54,0.01-13.09-0.01-19.63c0-0.42-0.15-0.89-0.39-1.23c-1.49-2.23-1.6-4.89-0.18-7.03c1.49-2.25,3.65-3.15,6.28-2.79
	c2.56,0.35,4.56,2.34,5.09,4.96c0.39,1.91-0.12,3.65-1.29,5.18c7.91,8.01,22.34,8.37,30.78,0.03c-0.84-1.2-1.42-2.49-1.4-4.02
	c0.03-2.71,1.67-5.04,4.22-5.91c2.47-0.85,5.29-0.02,6.9,2.03c1.65,2.11,1.82,5.04,0.33,7.25c-0.43,0.63-0.57,1.25-0.56,1.98
	C335.1-166.56,335.1-159.95,335.1-153.05z M284.45-110.13c17.22,0,34.31,0,51.53,0c-3.19-9.25-6.35-18.42-9.55-27.7
	c-10.82,3.85-21.62,3.84-32.43-0.01C290.8-128.56,287.64-119.39,284.45-110.13z M286.95-152.08c-0.04,0.1-0.08,0.2-0.12,0.3
	c2.37,1.37,4.73,2.73,7.2,4.16c0.74-2.17,1.4-4.09,2.06-6.01c0.46-1.33,0.79-1.56,2.19-1.56c7.9,0,15.81,0,23.71,0
	c1.6,0,1.88,0.2,2.39,1.69c0.65,1.89,1.3,3.77,2.02,5.89c2.48-1.44,4.84-2.81,7.21-4.18c-0.05-0.1-0.09-0.19-0.14-0.29
	c-1.91,0-3.81,0-5.72,0c-1.5,0-1.99-0.48-1.99-1.96c0-5.05,0-10.11,0-15.16c0-0.34,0-0.68,0-1.07c-10.41,6.79-20.71,6.79-31.1,0
	c0,0.4,0,0.75,0,1.09c0,5.05,0,10.11,0,15.16c0,1.42-0.51,1.93-1.92,1.93C290.82-152.07,288.89-152.08,286.95-152.08z
	 M309.62-138.08c7.4-0.09,13.83-1.56,19.91-4.55c5.21-2.57,9.57-6.23,13.63-10.32c1.06-1.07,1.44-2.12,1.27-3.49
	c-0.02-0.21-0.13-0.4-0.2-0.6c-0.21,0.1-0.48,0.14-0.63,0.3c-0.96,0.92-1.87,1.89-2.83,2.8c-12.24,11.72-26.58,15.41-42.91,10.94
	c-6.99-1.92-12.98-5.73-18.1-10.86c-0.98-0.99-1.95-1.98-2.97-2.94c-0.14-0.13-0.66-0.12-0.72-0.02c-0.35,0.59,0.06,2.64,0.57,3.15
	c0.89,0.89,1.78,1.79,2.68,2.68C287.88-142.53,298.24-138.31,309.62-138.08z M323.41-146.58c-0.58-1.68-1.15-3.22-1.63-4.79
	c-0.18-0.59-0.48-0.72-1.04-0.72c-2.17,0.03-4.34,0.01-6.51,0.01c-4.83,0-9.65-0.01-14.48,0.01c-0.32,0-0.84,0.1-0.91,0.29
	c-0.64,1.7-1.21,3.43-1.81,5.2C305.88-143.59,314.58-143.58,323.41-146.58z M272.83-116.35c0-13.49,0-26.91,0-40.31
	c-1.05,0-2.03,0-3,0c0,13.47,0,26.87,0,40.31C270.84-116.35,271.8-116.35,272.83-116.35z M350.58-116.35c0-13.5,0-26.92,0-40.35
	c-1.03,0-1.99,0-2.99,0c0,13.47,0,26.88,0,40.35C348.6-116.35,349.56-116.35,350.58-116.35z M266.68-170.79
	c-0.02,2.51,2.07,4.65,4.58,4.71c2.52,0.06,4.73-2.12,4.73-4.65c0-2.51-2.1-4.62-4.63-4.66
	C268.89-175.43,266.7-173.28,266.68-170.79z M344.43-170.76c0,2.52,2.1,4.64,4.61,4.68c2.53,0.03,4.72-2.15,4.7-4.68
	c-0.03-2.51-2.14-4.61-4.66-4.63C346.61-175.41,344.43-173.24,344.43-170.76z M291.49-155.23c0-5.78,0-11.48,0-17.12
	c-1.03,0-1.99,0-3,0c0,5.66,0,11.37,0,17.12C289.5-155.23,290.46-155.23,291.49-155.23z M328.93-172.35c0,5.66,0,11.37,0,17.11
	c1.03,0,2.01,0,2.99,0c0-5.76,0-11.47,0-17.11C330.89-172.35,329.93-172.35,328.93-172.35z M293.1-178.49
	c0.01-1.64-1.42-3.1-3.08-3.12c-1.62-0.02-3.12,1.46-3.12,3.09c0,1.66,1.43,3.1,3.09,3.12C291.63-175.4,293.09-176.84,293.1-178.49z
	 M327.33-178.59c-0.05,1.64,1.36,3.12,3.02,3.18c1.63,0.06,3.12-1.35,3.18-3.02c0.06-1.63-1.35-3.11-3.02-3.18
	C328.9-181.68,327.38-180.23,327.33-178.59z M266.68-110.15c3.17,0,6.22,0,9.32,0c0-0.52,0.02-0.97-0.01-1.42
	c-0.06-0.97-0.63-1.6-1.59-1.61c-2.04-0.04-4.08-0.04-6.12,0c-0.97,0.02-1.54,0.63-1.6,1.61
	C266.65-111.13,266.68-110.68,266.68-110.15z M344.43-110.15c3.16,0,6.22,0,9.32,0c0-0.51,0.02-0.96,0-1.41
	c-0.06-0.98-0.63-1.6-1.59-1.62c-2.04-0.04-4.08-0.04-6.12,0c-0.97,0.02-1.54,0.63-1.61,1.6
	C344.4-111.14,344.43-110.68,344.43-110.15z M271.25-159.85c0.97,0,1.94,0.01,2.91,0c1.11-0.02,1.85-0.68,1.83-1.59
	c-0.02-0.88-0.74-1.51-1.8-1.52c-1.91-0.02-3.82-0.02-5.73,0c-1.05,0.01-1.77,0.66-1.78,1.53c-0.01,0.87,0.71,1.54,1.75,1.57
	C269.37-159.83,270.31-159.85,271.25-159.85z M349-159.85c0.97,0,1.94,0.01,2.91,0c1.11-0.02,1.85-0.67,1.83-1.58
	c-0.02-0.88-0.74-1.51-1.79-1.52c-1.91-0.02-3.82-0.02-5.73,0c-1.06,0.01-1.77,0.65-1.78,1.53c-0.02,0.91,0.72,1.55,1.84,1.57
	C347.19-159.84,348.09-159.85,349-159.85z"/>
<path class="st0" d="M324.54-186.28c-0.54,0.61-0.84,1.16-1.31,1.46c-1.17,0.74-2.44,1.32-3.62,2.05c-0.43,0.26-0.83,0.71-1.03,1.16
	c-0.75,1.64-1.43,3.32-2.12,4.99c-0.29,0.72-0.72,1.22-1.56,1.23c-0.83,0.01-1.28-0.48-1.58-1.2c-0.71-1.73-1.41-3.47-2.17-5.17
	c-0.17-0.38-0.5-0.75-0.86-0.96c-1.19-0.71-2.44-1.33-3.65-2.01c-1.48-0.84-1.49-2.22-0.03-3.07c1.46-0.86,3.23-1.46,4.3-2.67
	c1.05-1.19,1.38-3.02,2.03-4.56c0.12-0.3,0.27-0.59,0.38-0.89c0.27-0.73,0.72-1.22,1.55-1.23c0.84-0.01,1.28,0.48,1.58,1.19
	c0.7,1.7,1.39,3.41,2.15,5.08c0.19,0.43,0.58,0.84,0.98,1.09c1.19,0.72,2.46,1.3,3.63,2.04
	C323.69-187.45,324.01-186.88,324.54-186.28z M315.02-191.32c-0.08,0.03-0.15,0.06-0.23,0.08c-0.46,1.03-0.72,2.22-1.42,3.04
	c-0.7,0.83-1.83,1.3-2.76,1.91c0.98,0.65,2.09,1.12,2.78,1.94c0.7,0.83,0.97,2.02,1.49,3.19c0.55-1.23,0.81-2.42,1.51-3.24
	c0.7-0.83,1.84-1.29,3.04-2.07C316.65-187.04,315.67-189.04,315.02-191.32z"/>
<g>
	<path class="st0" d="M381.67-114.71c0.11-0.28,0.24-0.56,0.33-0.85c0.58-1.82,1.68-3.27,3.35-4.18c0.69-0.38,0.89-0.78,0.89-1.53
		c-0.02-11.09-0.02-22.18,0-33.27c0-0.63-0.15-1.11-0.57-1.61c-1.32-1.57-1.26-3.88-0.03-5.52c0.32-0.43,0.51-1.04,0.56-1.59
		c0.09-1.04,0.02-2.08,0.03-3.13c0.01-1.84,0.82-3.22,2.45-4.06c0.47-0.25,0.64-0.52,0.6-1.01c-0.03-0.34-0.03-0.7,0-1.04
		c0.11-1.14-0.07-1.96-1.27-2.65c-1.67-0.96-2.18-3.23-1.51-5.04c0.67-1.82,2.47-3.01,4.43-2.93c1.92,0.08,3.59,1.44,4.11,3.36
		c0.5,1.82-0.24,3.91-1.92,4.84c-0.88,0.48-1.13,1.04-1,1.93c0.02,0.15,0.02,0.32,0,0.47c-0.11,1.08,0.03,1.89,1.21,2.5
		c1.23,0.63,1.77,1.92,1.82,3.34c0.02,0.6,0.01,1.2,0.01,1.8c0,1.37,0.06,2.59,0.91,3.9c1.87,2.87-0.37,6.46-3.94,6.61
		c-0.97,0.04-1.95,0.01-2.99,0.01c0,11.21,0,22.35,0,33.53c1.03,0,2.02,0,3.16,0c0-0.38,0-0.74,0-1.11c0-9.04,0-18.07,0-27.11
		c0-0.32-0.04-0.64,0.03-0.95c0.16-0.78,0.7-1.23,1.48-1.19c0.73,0.03,1.24,0.45,1.33,1.23c0.04,0.34,0.02,0.69,0.02,1.04
		c0,9.26,0.01,18.52-0.01,27.78c0,0.63,0.17,0.99,0.75,1.33c2.39,1.38,3.7,3.46,3.81,6.24c0.04,1.16-0.48,1.72-1.62,1.72
		c-4.93,0.01-9.86-0.01-14.79,0.01c-0.77,0-1.23-0.38-1.62-0.96C381.67-113.45,381.67-114.08,381.67-114.71z M396.61-114.77
		c-0.62-1.55-1.6-2.67-3.15-2.95c-1.41-0.25-2.88-0.21-4.32-0.21c-1.71,0-3.01,0.8-3.92,2.23c-0.17,0.27-0.25,0.58-0.4,0.93
		C388.8-114.77,392.64-114.77,396.61-114.77z M390.68-157.35c0.57,0,1.13,0.03,1.7-0.01c0.81-0.06,1.39-0.7,1.42-1.49
		c0.03-0.78-0.52-1.53-1.32-1.57c-1.19-0.07-2.39-0.07-3.58,0c-0.79,0.04-1.37,0.8-1.34,1.56c0.02,0.77,0.63,1.44,1.42,1.5
		C389.55-157.32,390.11-157.35,390.68-157.35z M392.29-163.45c0-1.09,0.03-2.06-0.01-3.04c-0.03-0.9-0.63-1.5-1.46-1.57
		c-0.89-0.07-1.63,0.47-1.71,1.4c-0.09,1.05-0.02,2.12-0.02,3.21C390.19-163.45,391.19-163.45,392.29-163.45z M390.64-177.09
		c0.89,0.02,1.64-0.7,1.64-1.58c0-0.83-0.71-1.56-1.55-1.59c-0.86-0.03-1.65,0.73-1.65,1.59
		C389.08-177.84,389.8-177.11,390.64-177.09z"/>
	<path class="st0" d="M471.16-174.36c0,0.37,0.02,0.75,0,1.13c-0.09,1.39-0.13,2.6,1.47,3.41c1.14,0.58,1.56,1.93,1.56,3.27
		c0,0.66,0,1.33,0,1.99c0.01,1.21-0.02,2.32,0.86,3.43c1.17,1.47,0.82,3.59-0.37,5.1c-0.28,0.36-0.48,0.88-0.48,1.33
		c-0.03,11.18-0.02,22.36-0.03,33.55c0,0.64,0.18,0.99,0.75,1.32c2.38,1.38,3.69,3.47,3.8,6.25c0.05,1.17-0.49,1.7-1.63,1.71
		c-4.93,0.01-9.86,0.01-14.78,0c-1.1,0-1.63-0.55-1.6-1.64c0.09-2.86,1.44-4.98,3.9-6.38c0.48-0.27,0.65-0.54,0.65-1.09
		c-0.02-11.28-0.01-22.55-0.03-33.83c0-0.39-0.19-0.85-0.44-1.16c-1.43-1.78-1.43-4.02-0.02-5.84c0.26-0.34,0.43-0.83,0.46-1.26
		c0.06-1.13,0.02-2.27,0.03-3.41c0.02-1.8,0.83-3.15,2.42-3.98c0.45-0.24,0.69-0.48,0.62-1.01c-0.04-0.31-0.03-0.63,0-0.95
		c0.09-1.15-0.01-2.03-1.26-2.75c-1.68-0.96-2.2-3.23-1.53-5.04c0.68-1.85,2.53-3.06,4.52-2.94c1.95,0.12,3.6,1.54,4.08,3.52
		c0.44,1.81-0.42,3.79-2.08,4.79C471.75-174.67,471.47-174.53,471.16-174.36z M471.29-120.84c0-11.21,0-22.33,0-33.48
		c-1.07,0-2.09,0-3.09,0c0,11.2,0,22.32,0,33.48C469.24-120.84,470.21-120.84,471.29-120.84z M463.83-114.77c3.98,0,7.81,0,11.77,0
		c-0.56-1.58-1.57-2.73-3.1-2.93c-1.82-0.24-3.71-0.24-5.53-0.01C465.43-117.51,464.42-116.37,463.83-114.77z M469.71-157.35
		C469.71-157.35,469.71-157.35,469.71-157.35c0.57,0,1.13,0.04,1.7-0.01c0.83-0.06,1.46-0.78,1.44-1.58
		c-0.02-0.78-0.6-1.46-1.41-1.5c-1.16-0.05-2.33-0.06-3.49,0.01c-0.8,0.05-1.36,0.77-1.34,1.55c0.02,0.79,0.59,1.44,1.4,1.51
		C468.57-157.32,469.14-157.35,469.71-157.35z M471.34-163.45c0-1.08,0.04-2.06-0.01-3.03c-0.05-0.97-0.68-1.56-1.55-1.59
		c-0.84-0.02-1.57,0.54-1.62,1.39c-0.07,1.06-0.02,2.12-0.02,3.22C469.23-163.45,470.23-163.45,471.34-163.45z M469.7-180.25
		c-0.88,0.02-1.61,0.8-1.57,1.66c0.04,0.84,0.77,1.52,1.62,1.51c0.87-0.01,1.63-0.8,1.58-1.65
		C471.28-179.57,470.53-180.27,469.7-180.25z"/>
	<path class="st0" d="M441.74-142.34c-0.46-1.43-0.91-2.86-1.37-4.28c-0.79-2.46-1.6-4.91-2.39-7.37c-0.41-1.27-0.28-1.65,0.77-2.42
		c3.07-2.23,6.13-4.45,9.2-6.68c0.26-0.19,0.48-0.42,0.94-0.83c-0.56-0.06-0.82-0.11-1.07-0.11c-1.71-0.01-3.41,0-5.12-0.01
		c-1.09-0.01-1.75-0.56-1.77-1.43c-0.02-0.89,0.6-1.45,1.71-1.46c1.83-0.02,3.67-0.02,5.5,0c1.64,0.02,2.77,0.8,3.22,2.15
		c0.46,1.4,0.02,2.74-1.33,3.73c-2.8,2.06-5.6,4.1-8.44,6.11c-0.57,0.4-0.67,0.74-0.45,1.4c1.11,3.28,2.17,6.58,3.22,9.88
		c0.67,2.1-0.34,3.89-2.39,4.36c-1.01,0.23-1.86-0.14-2.65-0.71c-3.02-2.19-6.03-4.38-9.12-6.62c-1.68,1.21-3.36,2.43-5.04,3.64
		c-1.38,1-2.75,2.02-4.14,3c-1.36,0.96-2.67,1-3.87,0.16c-1.21-0.86-1.65-2.22-1.15-3.78c1.06-3.33,2.14-6.66,3.25-9.97
		c0.2-0.61,0.13-0.94-0.41-1.33c-2.83-2.01-5.64-4.05-8.44-6.11c-2.02-1.48-2.08-4.18-0.07-5.39c0.61-0.37,1.43-0.5,2.16-0.51
		c3.38-0.05,6.76-0.04,10.14-0.01c0.72,0.01,1.05-0.2,1.27-0.9c1.05-3.36,2.14-6.72,3.26-10.06c0.62-1.84,2.43-2.7,4.17-2.04
		c1.01,0.38,1.62,1.15,1.95,2.17c1.25,3.87,2.51,7.73,3.76,11.59c0.31,0.97-0.02,1.7-0.84,2.01c-0.8,0.29-1.54-0.11-1.87-1.1
		c-1.2-3.65-2.38-7.3-3.57-10.95c-0.11-0.35-0.27-0.68-0.52-1.31c-0.28,0.61-0.47,0.94-0.59,1.29c-1.15,3.53-2.3,7.07-3.44,10.6
		c-0.43,1.33-0.77,1.57-2.19,1.57c-3.7,0-7.39,0-11.09,0c-0.34,0-0.69,0-1.03,0c-0.05,0.07-0.1,0.14-0.15,0.21
		c0.22,0.24,0.42,0.51,0.68,0.7c3.06,2.24,6.13,4.46,9.19,6.69c1.11,0.8,1.23,1.17,0.81,2.49c-1.15,3.57-2.31,7.13-3.46,10.7
		c-0.1,0.31-0.17,0.63-0.08,1.11c0.28-0.15,0.57-0.27,0.83-0.45c3-2.16,5.98-4.33,8.97-6.51c1.39-1.01,1.66-1.01,3.08,0.02
		c2.99,2.17,5.98,4.34,8.97,6.51c0.24,0.17,0.5,0.29,0.76,0.44C441.58-142.19,441.66-142.26,441.74-142.34z"/>
	<path class="st0" d="M406.26-114.76c16.02,0,31.93,0,47.95,0c-0.51-2.24-0.99-4.41-1.49-6.58c-2.36-10.21-4.73-20.43-7.09-30.64
		c-0.04-0.15-0.05-0.31-0.07-0.47c-0.12-0.96,0.29-1.61,1.13-1.78c0.77-0.16,1.49,0.35,1.7,1.27c0.57,2.42,1.13,4.85,1.69,7.27
		c2.44,10.59,4.87,21.18,7.3,31.76c0.31,1.34-0.26,2.06-1.65,2.06c-17,0-34,0-51,0c-1.44,0-1.99-0.71-1.67-2.12
		c2.98-12.95,5.97-25.9,8.95-38.85c0.17-0.75,0.54-1.37,1.32-1.38c0.45-0.01,1.09,0.29,1.33,0.66c0.25,0.38,0.24,1.04,0.13,1.53
		c-0.47,2.25-1.02,4.48-1.54,6.72c-2.3,9.94-4.6,19.88-6.9,29.82C406.29-115.28,406.29-115.06,406.26-114.76z"/>
	<path class="st0" d="M431.68-187.71c0,0.85,0.01,1.7,0,2.55c-0.02,1.2-0.51,1.81-1.45,1.83c-0.95,0.01-1.48-0.6-1.49-1.78
		c-0.02-1.76-0.01-3.53,0-5.3c0.01-1.18,0.53-1.83,1.44-1.84c0.94-0.01,1.48,0.66,1.49,1.89
		C431.69-189.48,431.68-188.6,431.68-187.71z"/>
	<path class="st0" d="M421.01-186.39c0.52,0.32,0.93,0.49,1.23,0.77c0.94,0.89,1.85,1.81,2.75,2.74c0.72,0.74,0.76,1.57,0.15,2.18
		c-0.59,0.59-1.48,0.54-2.18-0.15c-0.97-0.95-1.93-1.91-2.88-2.88c-0.45-0.47-0.66-1.07-0.26-1.63
		C420.1-185.75,420.57-186.02,421.01-186.39z"/>
	<path class="st0" d="M440.96-184.85c-0.29,0.5-0.45,0.93-0.74,1.23c-0.91,0.97-1.85,1.9-2.81,2.82c-0.67,0.65-1.54,0.68-2.12,0.13
		c-0.61-0.58-0.62-1.42,0.03-2.11c0.96-1,1.91-2.03,2.97-2.92c0.37-0.31,1.12-0.42,1.6-0.29
		C440.31-185.87,440.59-185.27,440.96-184.85z"/>
</g>
</svg>
